<?xml version="1.0" encoding="utf-8" standalone="no"?>
<!DOCTYPE svg PUBLIC "-//W3C//DTD SVG 1.1//EN" "http://www.w3.org/Graphics/SVG/1.1/DTD/svg11.dtd">
<svg version="1.1"
   xmlns="http://www.w3.org/2000/svg"
   xmlns:xlink="http://www.w3.org/1999/xlink"
   width="500" height="650" viewBox="0,0 5000,6500">
  <title>Bundeswappen Deutschlands</title>
  <path d="M 25,25 V 4300 c 0,1930 1953,1308 2475,2153 522,-845 2475,-223 2475,-2153 V 25 z" stroke="black" stroke-width="50" fill="#ffcc00" />
  <g stroke="black" stroke-width="40" stroke-miterlimit="5" fill="#dd0000">
    <path d="M 2490,734 c -247,-6 -458,-4 -709,-146 132,200 443,254 712,248" />
    <path d="M 2350,285 c -233,-204 -590,-98 -359,308 150,-122 279,19 329,144 -94,49 -232,74 -367,64 175,123 384,95 564,-3" />
  </g>
  <g id="r">
    <path d="M 260,5050 V 1100 h 275 V 5050 h 80 V 1750 h 275 V 5050 h 80 V 2050 h 275 V 5050 h 80 V 2150 h 275 V 5050 h 80 V 2150 h 275 V 5050" />
    <path d="M 2500,3150 V 5064 H 219" fill="#ffcc00" />
    <path d="M 1813,4108 l -492,613 -378,-170 -123,113 -13,222 134,-136 10,-192 -10,192 329,54 -480,282 99,290 35,-244 -125,-55 218,96 306,-292 -13,583 201,90 -86,-189 -108,-7 196,12 -104,-510 363,187 121,-133 -121,131 10,177 138,-163 -8,-148 -475,-133 585,-542" stroke="black" stroke-width="40" stroke-miterlimit="5" fill="#dd0000" />
    <path d="M 2700,1865 c -2148,0 -2141,-815 -1917,-1106 202,294 624,158 687,-119 -399,-615 -940,-57 -1215,-235 25,97 93,197 190,235 -87,88 -185,202 -185,460 0,847 876,1165 1728,1254 27,316 85,741 191,1146.5 l -726,792 402,-79.5 -12,532 337,-505.5 c 0,1205.5 -332,1310.5 -607,1212.5 32,225 445,319 642,159 l 285,316" />
  </g>
  <use xlink:href="#r" transform="matrix(-1,0,0,1,5000,0)" />
  <path d="M 1970,1996 c 0,-722 392,-693 354,-1120 0,-52 134,-35 126,-92 -24,-156 -292,-510 -156,-612 136,-102 498,304 789,175 -59,88 -124,128 -233,160 296,838 255,1580 163,1810" />
  <path d="M 2326.8,267.7 c -8.7,-4.6 -18.2,-0.1 -16.2,16.5 6.8,55.8 30,96.7 53.7,138.3 8.7,15.2 19.7,24.7 40.1,9.8 27.6,-20.2 52.9,-44.1 72.7,-72 -55.8,-42.8 -61.8,-45.3 -103.6,55.1 -4.9,-40.7 -3,-84 5.8,-119.5" fill="white" />
</svg>

